<?xml version="1.0" encoding="UTF-8"?>
<svg version="1.1" xmlns="http://www.w3.org/2000/svg" width="1024" height="1024">
<path d="M0 0 C337.92 0 675.84 0 1024 0 C1024 337.92 1024 675.84 1024 1024 C686.08 1024 348.16 1024 0 1024 C0 686.08 0 348.16 0 0 Z " fill="#FEFEFE" transform="translate(0,0)"/>
<path d="M0 0 C1.53847505 0.82873011 3.05911588 1.69122528 4.5625 2.58203125 C5.86417114 3.35123901 5.86417114 3.35123901 7.19213867 4.13598633 C8.11873291 4.68923584 9.04532715 5.24248535 10 5.8125 C11.46433472 6.68201294 11.46433472 6.68201294 12.95825195 7.5690918 C20.27273907 11.92855205 27.51541695 16.39686268 34.73901367 20.90478516 C43.09953601 26.1036088 51.56966564 31.11240252 60.0612793 36.09301758 C62.22629587 37.36672149 64.37140903 38.67479013 66.49658203 40.01391602 C69.0268883 41.55093614 71.50264994 42.57511344 74.29638672 43.54663086 C79.18269799 45.47883568 83.06817259 47.50759551 86 52 C88.87754784 61.20239674 88.65002523 71.00573072 88.52539062 80.5559082 C88.48826331 83.64415187 88.5432752 86.70725929 88.68945312 89.79223633 C89.84048724 114.27017156 89.84048724 114.27017156 83.73065186 121.79486084 C78.06427427 126.62696332 71.69374718 129.77471246 64.89318848 132.7159729 C61.19105028 134.35902029 57.98707788 136.3594987 54.6015625 138.578125 C53.59665771 139.19357178 52.59175293 139.80901855 51.55639648 140.44311523 C49.4914301 141.71594077 47.4371487 143.00618253 45.39086914 144.30883789 C40.49280411 147.40113418 35.8074747 150.20391543 30.39453125 152.29296875 C23.09602147 155.24648173 23.09602147 155.24648173 18 161 C15.55831619 171.770206 16.2569695 183.05761252 17 194 C13.4467864 192.66223552 10.23829775 191.08386975 6.96484375 189.1640625 C5.99933594 188.60291748 5.03382813 188.04177246 4.0390625 187.46362305 C1.93113184 186.21403034 -0.16627113 184.94654215 -2.25390625 183.66333008 C-7.42193653 180.5152263 -12.27229492 177.76156009 -18.02734375 175.84765625 C-23.98825737 173.6515574 -28.64135387 171.61035545 -32 166 C-36.17458375 153.74244867 -36.6380255 137.17204135 -32 125 C-26.53270191 117.26283861 -18.06953423 113.98818394 -9.53222656 110.53320312 C-4.03544001 108.14726039 0.78620809 104.88911913 5.75 101.5625 C7.52617739 100.42192804 9.30474216 99.28506334 11.0859375 98.15234375 C12.72418481 97.10191563 14.36221578 96.05115001 16 95 C16.75958008 94.51289551 17.51916016 94.02579102 18.30175781 93.52392578 C22.20423848 91.02069559 26.10391336 88.51317534 30 86 C26.73797619 83.30682748 23.4524181 80.94306398 19.83203125 78.7578125 C18.85556641 78.16613281 17.87910156 77.57445312 16.87304688 76.96484375 C15.35807617 76.05412109 15.35807617 76.05412109 13.8125 75.125 C12.3265332 74.22587891 12.3265332 74.22587891 10.81054688 73.30859375 C8.83756473 72.11574815 6.86119261 70.92849028 4.88134766 69.74707031 C2.97171354 68.58918676 1.0800581 67.40108033 -0.79150391 66.18261719 C-1.66081543 65.62477539 -2.53012695 65.06693359 -3.42578125 64.4921875 C-4.18930908 63.98800293 -4.95283691 63.48381836 -5.73950195 62.96435547 C-8.6124064 61.73874011 -10.05619836 62.07666073 -13 63 C-15.73727403 64.45962673 -18.34652581 66.02594569 -20.90133667 67.78681946 C-25.38114924 70.7599326 -29.49514115 72.52139165 -34.671875 73.99853516 C-42.85683226 76.80025162 -50.54503778 80.20792232 -55 88 C-60.5180842 104.02515713 -58.52852195 123.08210784 -58.01902115 139.74941474 C-57.86494183 145.14710553 -57.87955701 150.53388819 -57.93854129 155.93293363 C-57.99966903 161.81690974 -57.95145511 167.69510318 -57.85400772 173.5784359 C-57.82138056 176.06157924 -57.81435154 178.54520354 -57.83413315 181.02848244 C-58.30457781 193.88768022 -58.30457781 193.88768022 -53.12086678 205.08774757 C-48.59623438 208.64508281 -43.66129099 210.94577603 -38.32825279 213.03622055 C-34.8839629 214.46198318 -31.8425052 216.33555233 -28.66796875 218.28515625 C-26.50781856 219.54428123 -24.34766249 220.80339612 -22.1875 222.0625 C-21.08341797 222.71154297 -19.97933594 223.36058594 -18.84179688 224.02929688 C-17.77380859 224.64998047 -16.70582031 225.27066406 -15.60546875 225.91015625 C-14.66856201 226.45808838 -13.73165527 227.00602051 -12.76635742 227.57055664 C-7.61940044 230.44046514 -7.61940044 230.44046514 -1.99633789 230.4519043 C-1.41102295 230.07976807 -0.82570801 229.70763184 -0.22265625 229.32421875 C0.44854248 228.91252441 1.11974121 228.50083008 1.8112793 228.07666016 C2.51293213 227.6182373 3.21458496 227.15981445 3.9375 226.6875 C4.67460205 226.22907715 5.4117041 225.7706543 6.17114258 225.29833984 C7.70020176 224.34723788 9.22452352 223.38847961 10.74414062 222.42236328 C14.18398937 220.25347164 17.68787412 218.19543153 21.1875 216.125 C24.62211197 214.08161156 28.00018459 211.99987374 31.30078125 209.7421875 C34 208 34 208 36 208 C35.94763184 207.12786865 35.89526367 206.2557373 35.84130859 205.35717773 C35.66994025 202.09315313 35.54515473 198.83395062 35.45068359 195.56713867 C35.40064587 194.15914157 35.33258007 192.75165777 35.24560547 191.34545898 C34.54818631 179.77240346 34.54818631 179.77240346 37.85742188 175.73242188 C40.47762213 173.87339712 43.13035114 172.44198066 46 171 C47.92145399 169.79970911 49.83279788 168.58310141 51.734375 167.3515625 C53.7379301 166.10671021 55.74318004 164.86458215 57.75 163.625 C65.75954456 158.65676613 73.72159583 153.63646407 81.5859375 148.44140625 C84 147 84 147 86 147 C86.48836254 158.8993085 86.86054314 170.79620763 87.08805561 182.70352459 C87.1973126 188.23443543 87.34517069 193.75845725 87.58422852 199.28540039 C89.08746081 234.95635771 89.08746081 234.95635771 84.03115845 243.21627808 C79.30222672 247.89549172 74.04403641 250.15874882 67.74731445 252.04560852 C63.07309003 253.66939059 59.1496704 256.44738391 55.0625 259.1875 C48.94988805 262.98306631 42.80854474 266.72874886 36.640625 270.43359375 C36.00131546 270.81780991 35.36200592 271.20202606 34.70332336 271.59788513 C31.44365591 273.5544085 28.17892369 275.50169607 24.9050293 277.43432617 C19.31816358 280.7410341 13.81033532 284.05533031 8.50390625 287.8046875 C7.70557373 288.35237793 6.90724121 288.90006836 6.0847168 289.46435547 C4.67087486 290.4469061 3.28186968 291.4668548 1.92895508 292.53173828 C-0.16282051 293.96113189 -1.47805578 294.68164355 -4 295 C-8.37247522 293.62405977 -12.09858548 291.37391573 -16 289 C-17.38928711 288.20916016 -17.38928711 288.20916016 -18.80664062 287.40234375 C-21.61998856 285.79988004 -24.40452497 284.15458837 -27.1875 282.5 C-35.63360222 277.52498063 -44.12469779 272.64641501 -52.6875 267.875 C-61.20173954 263.12952002 -69.68910524 258.34234166 -78.14428711 253.49243164 C-82.88091721 250.77725023 -87.62616124 248.07842183 -92.3828125 245.3984375 C-93.44419434 244.80039307 -94.50557617 244.20234863 -95.59912109 243.58618164 C-97.66636112 242.42249818 -99.73436996 241.26017919 -101.80322266 240.09936523 C-102.72925293 239.57802002 -103.6552832 239.0566748 -104.609375 238.51953125 C-105.8463916 237.82500854 -105.8463916 237.82500854 -107.10839844 237.11645508 C-109 236 -109 236 -110 235 C-110.16079392 232.78682944 -110.25109923 230.56853603 -110.31539917 228.35046387 C-110.336715 227.6469824 -110.35803084 226.94350093 -110.3799926 226.21870184 C-110.44996611 223.84318754 -110.51212287 221.46754201 -110.57373047 219.09179688 C-110.62089238 217.3951151 -110.66809382 215.69843442 -110.71533203 214.00175476 C-111.13443684 198.45260708 -111.38399457 182.90051893 -111.58468437 167.3471756 C-111.72289336 156.89306904 -111.9152222 146.44564599 -112.24267578 135.99560547 C-112.52833901 126.87682118 -112.70998433 117.76276939 -112.76923668 108.63960123 C-112.80402098 103.81272322 -112.88811489 98.99888563 -113.09673691 94.1761322 C-114.28528661 65.57173469 -114.28528661 65.57173469 -108.69019842 58.29699445 C-101.98547596 51.50370738 -93.09417214 47.75404615 -84.33866024 44.34071827 C-80.19848449 42.67813242 -76.52293946 40.57511362 -72.7734375 38.18359375 C-71.15876587 37.23842896 -71.15876587 37.23842896 -69.51147461 36.27416992 C-60.12261066 30.7761997 -50.73992963 25.26798451 -41.37792969 19.72436523 C-39.11283275 18.38334169 -36.84658496 17.04425982 -34.57910156 15.70727539 C-29.35851403 12.62149916 -24.17135384 9.49876022 -19.04296875 6.26171875 C-17.66347046 5.40090698 -17.66347046 5.40090698 -16.25610352 4.52270508 C-14.55277576 3.45601128 -12.85849814 2.37466902 -11.17553711 1.27612305 C-10.42925049 0.81117432 -9.68296387 0.34622559 -8.9140625 -0.1328125 C-8.2742041 -0.54418457 -7.6343457 -0.95555664 -6.97509766 -1.37939453 C-4.07987329 -2.28911769 -2.66092436 -1.33864492 0 0 Z " fill="#000000" transform="translate(247,348)"/>
<path d="M0 0 C13.00258666 -0.81266167 27.77028995 4.96716705 37.5 13.24609375 C40.81905434 16.3709481 43.58059267 19.21977908 45.625 23.30859375 C45.63671875 25.20703125 45.63671875 25.20703125 44.625 27.30859375 C42.35942522 28.96747516 40.24612545 30.32859023 37.8125 31.68359375 C37.18279297 32.06386719 36.55308594 32.44414062 35.90429688 32.8359375 C31.26205193 35.47612298 31.26205193 35.47612298 28.3671875 34.71484375 C26.67831982 33.35163217 25.10691068 31.95825494 23.5625 30.43359375 C16.67642676 24.45589613 8.50945728 22.64740794 -0.44921875 22.984375 C-7.77403995 23.79607081 -13.45334089 26.01539089 -19.375 30.30859375 C-20.035 30.30859375 -20.695 30.30859375 -21.375 30.30859375 C-21.65472656 30.89382813 -21.93445313 31.4790625 -22.22265625 32.08203125 C-23.29759959 34.15904042 -24.49532324 36.00501719 -25.8125 37.93359375 C-32.31135259 48.45096762 -33.06109077 60.82098428 -30.68359375 72.7890625 C-28.00357465 81.63648956 -23.74980094 88.67443771 -15.5703125 93.27734375 C-4.08698694 98.67164615 6.70861164 98.40432553 18.625 94.30859375 C21.51126254 93.4039792 21.51126254 93.4039792 23.625 91.30859375 C24.38811669 88.41660086 24.41434181 85.60012943 24.4375 82.62109375 C24.499375 79.87796875 24.56125 77.13484375 24.625 74.30859375 C15.055 74.30859375 5.485 74.30859375 -4.375 74.30859375 C-4.375 67.37859375 -4.375 60.44859375 -4.375 53.30859375 C11.795 53.30859375 27.965 53.30859375 44.625 53.30859375 C44.8415625 64.44609375 44.8415625 64.44609375 45.0625 75.80859375 C45.12622803 78.13728516 45.18995605 80.46597656 45.25561523 82.86523438 C45.27607856 84.7317422 45.2939116 86.5982815 45.30859375 88.46484375 C45.3623114 89.89328613 45.3623114 89.89328613 45.41711426 91.35058594 C45.42301662 97.86004505 43.97902626 101.08734601 39.38284302 105.7147522 C35.36838077 109.35467719 31.56281709 112.03671971 26.6875 114.43359375 C25.68847656 114.93117188 24.68945312 115.42875 23.66015625 115.94140625 C9.98576395 122.10104242 -5.18266835 121.54250721 -19.375 117.30859375 C-33.99801436 111.40012907 -44.63673227 102.25115462 -51.34765625 87.8125 C-54.23013369 80.78714625 -55.96677574 73.89166867 -56.375 66.30859375 C-56.42785156 65.40496094 -56.48070312 64.50132812 -56.53515625 63.5703125 C-57.04358141 46.88070393 -51.6557563 32.30051996 -41.375 19.30859375 C-40.82585938 18.60863281 -40.27671875 17.90867187 -39.7109375 17.1875 C-29.58367598 5.74414062 -14.5561979 1.89134808 0 0 Z " fill="#020202" transform="translate(845.375,432.69140625)"/>
<path d="M0 0 C59.15519663 0 59.15519663 0 68.80078125 9.43359375 C76.58807134 18.52107082 78.38953007 30.67379474 77.84375 42.33984375 C76.59309868 51.68365219 72.77775274 60.37628709 66 67 C59.150676 71.56198018 52.60670503 74.27162115 44.2890625 74.1953125 C42.60611084 74.18781982 42.60611084 74.18781982 40.88916016 74.18017578 C38.77840088 74.15286377 38.77840088 74.15286377 36.625 74.125 C32.12875 74.08375 27.6325 74.0425 23 74 C23 87.53 23 101.06 23 115 C15.41 115 7.82 115 0 115 C0 77.05 0 39.1 0 0 Z " fill="#030303" transform="translate(705,436)"/>
<path d="M0 0 C23.43 0 46.86 0 71 0 C71 6.93 71 13.86 71 21 C54.83 21 38.66 21 22 21 C22 29.58 22 38.16 22 47 C36.85 47 51.7 47 67 47 C67 53.6 67 60.2 67 67 C52.15 67 37.3 67 22 67 C22 75.25 22 83.5 22 92 C38.5 92 55 92 72 92 C72 99.59 72 107.18 72 115 C48.24 115 24.48 115 0 115 C0 77.05 0 39.1 0 0 Z " fill="#030303" transform="translate(380,436)"/>
<path d="M0 0 C4.79788241 4.01134431 8.2574052 8.19506303 9.51953125 14.41796875 C9.62751827 16.23315782 9.6852266 18.05162991 9.70898438 19.86987305 C9.7257019 20.96168381 9.74241943 22.05349457 9.75964355 23.1783905 C9.77321899 24.35444351 9.78679443 25.53049652 9.80078125 26.7421875 C9.81919067 27.95816116 9.8376001 29.17413483 9.85656738 30.42695618 C9.91532151 34.31974445 9.96809711 38.21257731 10.01953125 42.10546875 C10.08748339 47.21362804 10.16125048 52.32165801 10.23828125 57.4296875 C10.25185669 58.59561935 10.26543213 59.76155121 10.27941895 60.96281433 C10.29613647 62.07038589 10.312854 63.17795746 10.33007812 64.3190918 C10.3426062 65.28187546 10.35513428 66.24465912 10.36804199 67.23661804 C10.56203426 71.31055329 11.0691306 75.36436287 11.51953125 79.41796875 C4.58953125 79.41796875 -2.34046875 79.41796875 -9.48046875 79.41796875 C-9.81046875 77.43796875 -10.14046875 75.45796875 -10.48046875 73.41796875 C-11.32609375 74.18109375 -12.17171875 74.94421875 -13.04296875 75.73046875 C-21.00491801 82.34357013 -30.51887767 83.13628756 -40.48046875 82.41796875 C-48.00601052 81.20989209 -53.53678114 78.26154419 -58.48046875 72.41796875 C-62.88162437 65.94056175 -63.46067727 59.06563728 -62.48046875 51.41796875 C-60.681555 44.16609771 -56.56221347 39.58087423 -50.48046875 35.41796875 C-38.07137373 28.02334975 -23.38522576 29.17065094 -9.48046875 29.41796875 C-10.16564047 21.96670333 -10.16564047 21.96670333 -13.91796875 15.79296875 C-19.05643634 13.03574224 -23.75861339 12.7916118 -29.48046875 13.41796875 C-33.04149399 14.62489341 -36.33554786 16.07724491 -38.80810547 18.97265625 C-40.9706446 20.84159518 -42.10491239 20.76781217 -44.9296875 20.7109375 C-45.77724609 20.70126953 -46.62480469 20.69160156 -47.49804688 20.68164062 C-48.8196582 20.64393555 -48.8196582 20.64393555 -50.16796875 20.60546875 C-51.06064453 20.59193359 -51.95332031 20.57839844 -52.87304688 20.56445312 C-55.07613041 20.52910954 -57.27799457 20.47977368 -59.48046875 20.41796875 C-56.6122769 11.22570957 -53.80189036 5.03011508 -45.16796875 0.04296875 C-32.2067287 -6.35936191 -12.63620879 -8.05931427 0 0 Z " fill="#020202" transform="translate(523.48046875,470.58203125)"/>
<path d="M0 0 C7.92 0 15.84 0 24 0 C27.23756791 6.47513582 30.26485896 12.78770484 32.953125 19.47265625 C33.29881531 20.32178085 33.64450562 21.17090546 34.00067139 22.04576111 C35.08754166 24.71649867 36.16921413 27.38929507 37.25 30.0625 C38.34559748 32.76761668 39.44235923 35.4722395 40.54217529 38.17564392 C41.22253464 39.84839274 41.90039064 41.52216237 42.57550049 43.19703674 C43.84870556 46.86594246 43.84870556 46.86594246 46 50 C46.20631546 49.46208832 46.41263092 48.92417664 46.62519836 48.3699646 C48.77930229 42.7554987 50.93763252 37.14267074 53.09838867 31.53076172 C53.90350385 29.43807746 54.70755209 27.34498238 55.51049805 25.25146484 C56.66693201 22.23685989 57.82723511 19.22376864 58.98828125 16.2109375 C59.34465164 15.27945892 59.70102203 14.34798035 60.06819153 13.38827515 C60.40831772 12.50781525 60.74844391 11.62735535 61.09887695 10.72021484 C61.39421829 9.95188324 61.68955963 9.18355164 61.99385071 8.39193726 C63.1957184 5.53471503 64.61376735 2.7724653 66 0 C73.59 0 81.18 0 89 0 C83.58659632 13.6190483 78.05240862 27.17668729 72.375 40.6875 C71.9893689 41.60578583 71.60373779 42.52407166 71.2064209 43.47018433 C69.6207187 47.24586169 68.03464954 51.02138279 66.44665527 54.7960968 C64.25616008 60.00382634 62.07465435 65.2151338 59.90481567 70.4315033 C58.65087534 73.44305176 57.39077325 76.45199511 56.12921143 79.46035767 C55.55262166 80.83894958 54.97859604 82.21861735 54.40740967 83.59945679 C43.6122541 109.67907033 43.6122541 109.67907033 30.5 116 C23.79595267 118.1568349 15.94793729 117.21317535 9 117 C10.12276571 109.94090922 11.37563401 102.96156852 13 96 C13.65226563 95.98582031 14.30453125 95.97164062 14.9765625 95.95703125 C19.95721172 95.68522591 23.92328625 95.39710315 27.6796875 91.7265625 C30.3988806 88.1706946 32.60845946 84.25769866 34 80 C33.40468315 76.0970582 31.57422032 72.57161553 29.96484375 69 C29.65418976 68.30358398 29.34353577 67.60716797 29.02346802 66.88964844 C28.34994287 65.38086574 27.67491811 63.87275178 26.99856567 62.36523438 C25.92818059 59.97922599 24.86187796 57.59143127 23.79663086 55.203125 C21.53471 50.13379396 19.26772018 45.0667389 17 40 C14.3720406 34.12838309 11.74616419 28.25585375 9.12576294 22.38085938 C8.07534075 20.02875302 7.02102004 17.67842008 5.96655273 15.328125 C5.32256168 13.88550246 4.67875303 12.44279848 4.03515625 11 C3.74109894 10.34741211 3.44704163 9.69482422 3.14407349 9.02246094 C1.79997332 5.99885157 0.80728344 3.22913378 0 0 Z " fill="#020202" transform="translate(608,468)"/>
<path d="M0 0 C5.43374308 5.04561858 8.45874605 11.42782921 10.625 18.4375 C7.35617686 18.72131864 4.08559609 18.95867491 0.8125 19.1875 C-0.11626953 19.26871094 -1.04503906 19.34992188 -2.00195312 19.43359375 C-3.3409668 19.52060547 -3.3409668 19.52060547 -4.70703125 19.609375 C-5.52921143 19.6722168 -6.3513916 19.73505859 -7.19848633 19.79980469 C-9.375 19.4375 -9.375 19.4375 -10.97924805 17.48925781 C-11.43984619 16.81217773 -11.90044434 16.13509766 -12.375 15.4375 C-17.65160174 13.67863275 -23.20930781 13.6419396 -28.4375 15.5625 C-31.01769663 18.05946448 -31.15014159 19.9147182 -31.375 23.4375 C-31.375 24.0975 -31.375 24.7575 -31.375 25.4375 C-30.46234375 25.67533203 -30.46234375 25.67533203 -29.53125 25.91796875 C-26.47176768 26.73233096 -23.42393654 27.58448292 -20.375 28.4375 C-19.73272461 28.60910645 -19.09044922 28.78071289 -18.42871094 28.95751953 C-7.57819567 31.87760769 1.72038863 34.83915056 7.6875 45.125 C10.5746186 51.75430716 10.96405429 58.35792357 8.703125 65.24609375 C5.23593903 72.82212023 0.44345503 77.33962159 -7.375 80.4375 C-20.21431309 83.68282401 -31.49357855 83.19457369 -43.58203125 77.375 C-48.48631252 74.29780391 -51.29614096 69.77511104 -53.375 64.4375 C-53.6875 60.875 -53.6875 60.875 -53.375 58.4375 C-40.15277778 55.71527778 -40.15277778 55.71527778 -34.375 56.4375 C-32.625 58.8125 -32.625 58.8125 -31.375 61.4375 C-27.00438634 64.26440905 -22.3964278 63.94126784 -17.375 63.4375 C-14.26307839 62.60733836 -14.26307839 62.60733836 -12.375 60.4375 C-11.47907917 56.83830577 -11.47907917 56.83830577 -11.375 53.4375 C-14.12784867 51.1787824 -16.38433523 49.93714146 -19.82421875 49.04296875 C-20.66839355 48.81311279 -21.51256836 48.58325684 -22.38232422 48.34643555 C-23.26678223 48.10836182 -24.15124023 47.87028809 -25.0625 47.625 C-35.90011004 44.51071088 -43.09652317 41.37842164 -49.28125 31.5859375 C-52.23778228 25.77846339 -52.4773005 18.95043896 -50.5390625 12.7734375 C-47.18380053 5.31980185 -42.84729856 1.2675966 -35.3203125 -1.8125 C-23.00557377 -5.98502324 -11.89417796 -5.50656387 0 0 Z " fill="#020202" transform="translate(596.375,470.5625)"/>
<path d="M0 0 C3.3 -0.0825 6.6 -0.165 10 -0.25 C11.02351562 -0.28641602 12.04703125 -0.32283203 13.1015625 -0.36035156 C19.225267 -0.43381706 23.94901763 0.37670265 29 4 C33.47532618 9.25850827 33.62043378 14.17481438 33.37890625 20.96875 C32.87327871 25.01377034 31.88731838 27.11268162 29 30 C20.19011806 36.57008145 10.86584395 35 0 35 C0 23.45 0 11.9 0 0 Z " fill="#FCFCFC" transform="translate(728,457)"/>
<path d="M0 0 C-0.17288981 6.78985454 -1.50816303 11.79088016 -6 17 C-11.35746601 21.46455501 -16.06479297 21.44172827 -22.9140625 21.43359375 C-27.43684021 20.79811486 -30.06195742 19.18818726 -32.875 15.625 C-34 13 -34 13 -34 10.4375 C-32.55959339 6.92650888 -31.31159677 5.9479981 -28 4 C-19.00113457 0.84619202 -9.49415681 0 0 0 Z " fill="#FAFAFA" transform="translate(514,514)"/>
</svg>
