<?xml version="1.0"?>
<svg xmlns="http://www.w3.org/2000/svg" version="1.1" viewBox="88.064 327.68 264.192 325.632" style="max-height: 500px;background-color:transparent;" width="264.192" height="325.632">
  <path transform="translate(0,0)" fill="#000000" d="M0 0 C337.92 0 675.84 0 1024 0 C1024 337.92 1024 675.84 1024 1024 C686.08 1024 348.16 1024 0 1024 C0 686.08 0 348.16 0 0 Z"/>
  <path transform="translate(247,347)" fill="#FEFEFE" d="M0 0 C1.8597507 0.91687552 3.6824026 1.91093125 5.47265625 2.95703125 C6.52598145 3.56836914 7.57930664 4.17970703 8.66455078 4.80957031 C9.78587402 5.47053711 10.90719727 6.13150391 12.0625 6.8125 C13.24435057 7.50275543 14.42648299 8.1925285 15.60888672 8.88183594 C23.90293434 13.72668442 32.14967551 18.65025216 40.37109375 23.6171875 C44.91146688 26.35517781 49.47099754 29.05975935 54.03515625 31.7578125 C54.74532898 32.17796631 55.45550171 32.59812012 56.18719482 33.03100586 C60.4872225 35.57498339 60.4872225 35.57498339 64.7901001 38.11413574 C66.80279995 39.30042231 68.81363768 40.48981441 70.82421875 41.6796875 C71.70920799 42.19947678 71.70920799 42.19947678 72.61207581 42.72976685 C73.78416374 43.42477829 74.94497878 44.13913178 76.09410095 44.87149048 C78.03806123 46.07783924 78.03806123 46.07783924 80.41773987 47.03744507 C83.23827636 48.43329382 84.97935588 49.57112793 87 52 C88.27246013 57.36806378 88.04921694 62.64699437 87.87890625 68.1171875 C87.86210601 69.70041274 87.8493015 71.28368499 87.84031677 72.86697388 C87.80606055 77.02094227 87.71775944 81.1720479 87.61798096 85.32489014 C87.52567176 89.56776194 87.48475808 93.81109956 87.43945312 98.0546875 C87.34312196 106.37110102 87.18966142 114.68519378 87 123 C65.82738891 134.58856795 65.82738891 134.58856795 56.7109375 139.42578125 C56.09172424 139.75440155 55.47251099 140.08302185 54.83453369 140.42160034 C52.39541577 141.71469811 49.95536934 143.00602052 47.51416016 144.29516602 C40.08373685 148.22189925 32.7375919 152.24940299 25.51025391 156.54370117 C23.38504515 157.77661989 21.19756244 158.90121878 19 160 C18.67 171.55 18.34 183.1 18 195 C-0.20618749 184.59646429 -0.20618749 184.59646429 -5.625 180.9440918 C-9.41027698 178.43489827 -12.94761011 176.58218776 -17.23828125 175.06640625 C-23.05241736 172.73925731 -27.73465382 170.55051363 -31 165 C-32.89748444 158.5779734 -32.94629903 151.89587233 -33 145.25 C-33.03492554 143.93257309 -33.03492554 143.93257309 -33.07055664 142.58853149 C-33.29116869 128.38795191 -33.29116869 128.38795191 -28.34716797 123.23510742 C-24.98529556 121.14035628 -21.64201775 119.54961096 -18 118 C-16.15542339 116.96838941 -14.32348003 115.91371267 -12.5078125 114.83203125 C-10.71497753 113.82296545 -8.92067395 112.81650503 -7.125 111.8125 C-5.13536792 110.69409713 -3.14578614 109.57560478 -1.15625 108.45703125 C-0.14691406 107.89064941 0.86242187 107.32426758 1.90234375 106.74072266 C7.06645856 103.83875713 12.22003681 100.91818077 17.375 98 C23.90150762 94.30563329 30.43820762 90.63138066 37 87 C33.12151285 83.72942184 29.08629441 81.14008015 24.72265625 78.59375 C24.03368759 78.18717163 23.34471893 77.78059326 22.63487244 77.36169434 C20.4462176 76.0707939 18.25457423 74.78508391 16.0625 73.5 C13.87445337 72.21416349 11.68709312 70.92718804 9.50083923 69.63830566 C8.14518125 68.83940592 6.78844304 68.04233528 5.43043518 67.24743652 C2.43824815 65.48694306 -0.46766599 63.68978336 -3.30712891 61.69091797 C-5.84242456 59.66179996 -5.84242456 59.66179996 -8.49609375 60.5390625 C-9.32238281 61.02117187 -10.14867187 61.50328125 -11 62 C-11.93972656 62.50273437 -12.87945312 63.00546875 -13.84765625 63.5234375 C-20.99806073 67.64165345 -28.10634101 71.82618216 -35.1875 76.0625 C-35.99388916 76.54444824 -36.80027832 77.02639648 -37.63110352 77.52294922 C-39.20820715 78.47090361 -40.77032637 79.4443673 -42.31416321 80.44558716 C-45 82 -45 82 -47.84487915 82.93383789 C-51.62870319 84.4658328 -53.46220517 85.7586188 -56 89 C-58.21659281 97.13187522 -57.41639768 106.05929178 -57.29296875 114.40234375 C-57.29489102 116.92583518 -57.30165701 119.4493272 -57.31306458 121.97279358 C-57.32831529 127.92662437 -57.29487284 133.87890852 -57.23759204 139.83236653 C-57.17508215 146.61360688 -57.1751475 153.39440267 -57.18031728 160.1758765 C-57.18955175 174.11785977 -57.12069713 188.05857914 -57 202 C-56.21646149 202.30652496 -55.43292297 202.61304993 -54.62564087 202.92886353 C-52.21782617 203.91113729 -50.20641261 204.99931688 -48.0234375 206.3984375 C-47.27956787 206.87200684 -46.53569824 207.34557617 -45.76928711 207.83349609 C-44.97917236 208.34219238 -44.18905762 208.85088867 -43.375 209.375 C-41.6758296 210.45840917 -39.97660938 211.5417402 -38.27734375 212.625 C-37.40706543 213.181875 -36.53678711 213.73875 -35.64013672 214.3125 C-29.11773523 218.48143278 -22.56988066 222.60999186 -16.01464844 226.72705078 C-14.2439635 227.84585244 -12.48433269 228.98210901 -10.7265625 230.12109375 C-9.84742188 230.67925781 -8.96828125 231.23742187 -8.0625 231.8125 C-7.35222656 232.27269531 -6.64195312 232.73289062 -5.91015625 233.20703125 C-3.43072347 234.23632543 -2.52920399 233.84571767 0 233 C1.60188575 232.10647362 3.16995761 231.15114112 4.7109375 230.15625 C5.62746094 229.5684375 6.54398437 228.980625 7.48828125 228.375 C8.44089844 227.75625 9.39351563 227.1375 10.375 226.5 C11.28894531 225.9121875 12.20289063 225.324375 13.14453125 224.71875 C15.05742127 223.48770843 16.95786858 222.23715911 18.84667969 220.96948242 C21.1894976 219.50621887 23.36980114 218.31682919 25.84863281 217.1496582 C29.86433999 215.1485696 32.88392482 213.28597131 36 210 C37.15002507 204.72469811 36.76130817 199.95573991 36.22052002 194.61941528 C34.66507027 177.46577077 34.66507027 177.46577077 38.77441406 171.36621094 C43.76677385 167.21184692 49.6966063 165.2424741 55.78955078 163.20458984 C61.40786608 161.09654667 66.42154877 157.93749202 71.5625 154.875 C73.45583458 153.78244922 75.35273513 152.69604403 77.25390625 151.6171875 C78.05127197 151.15940918 78.8486377 150.70163086 79.67016602 150.22998047 C82 149 82 149 87 147 C87 178.35 87 209.7 87 242 C80.73 245.3 74.46 248.6 68 252 C64.03272229 254.35034133 60.12863118 256.70577582 56.25 259.1875 C54.75593628 260.131698 54.75593628 260.131698 53.23168945 261.0949707 C45.21751803 266.17689749 37.26667535 271.35666546 29.33129883 276.56054688 C22.30580604 281.16582958 15.22949418 285.68351079 8.11206055 290.14526367 C7.3931665 290.59619385 6.67427246 291.04712402 5.93359375 291.51171875 C4.92014893 292.13892822 4.92014893 292.13892822 3.88623047 292.77880859 C2.00114795 293.96378142 2.00114795 293.96378142 0.32080078 295.28759766 C-1.21484375 296.45703125 -1.21484375 296.45703125 -4 298 C-6.40234375 297.5234375 -6.40234375 297.5234375 -9 296 C-9.5480127 295.69481445 -10.09602539 295.38962891 -10.66064453 295.07519531 C-12.64861543 293.95771869 -14.60561535 292.79603114 -16.5625 291.625 C-17.30064941 291.18655762 -18.03879883 290.74811523 -18.79931641 290.29638672 C-20.3833692 289.3542939 -21.96634539 288.41038893 -23.54833984 287.46484375 C-25.99442987 286.0033281 -28.44424918 284.54822418 -30.89453125 283.09375 C-39.8961043 277.7360932 -48.81018073 272.2616657 -57.6484375 266.63891602 C-63.84582663 262.70512581 -70.09892541 258.86931656 -76.375 255.0625 C-84.22633858 250.29966871 -92.06348176 245.51542424 -99.875 240.6875 C-101.23117432 239.85134155 -101.23117432 239.85134155 -102.61474609 238.99829102 C-103.44055176 238.48709717 -104.26635742 237.97590332 -105.1171875 237.44921875 C-105.84534668 236.99893311 -106.57350586 236.54864746 -107.32373047 236.0847168 C-109 235 -109 235 -110 234 C-110.12997953 231.8061174 -110.18871231 229.60801209 -110.22119141 227.41052246 C-110.23262932 226.71364712 -110.24406723 226.01677178 -110.25585175 225.29877901 C-110.29284211 222.94597711 -110.32232442 220.59314456 -110.3515625 218.24023438 C-110.37581914 216.56012649 -110.40030987 214.88002196 -110.42501831 213.19992065 C-110.64184132 197.83614324 -110.762859 182.47108541 -110.85931396 167.10613251 C-110.92561407 156.77321952 -111.02020133 146.44218278 -111.18652344 136.11035156 C-111.33156447 127.10011621 -111.42375492 118.09118201 -111.45199776 109.07979441 C-111.46866928 104.30992013 -111.51115217 99.54351243 -111.61651611 94.77470398 C-111.71478178 90.28199423 -111.74166923 85.7943744 -111.7149086 81.30072403 C-111.71742963 79.65621835 -111.74547425 78.01151348 -111.80154037 76.36796188 C-111.96879717 71.20072856 -111.86663085 66.86566997 -110 62 C-106.31837158 58.16618036 -101.57945117 55.94549862 -96.77934837 53.81360435 C-94.41494811 52.73248591 -92.23775697 51.40603107 -90.0390625 50.0234375 C-87.73625251 48.64170032 -85.43338264 47.26006334 -83.13037109 45.87866211 C-78.39803988 43.03987831 -73.66697973 40.199001 -68.9375 37.35546875 C-58.05433668 30.81489435 -47.16339098 24.29014709 -36.20581055 17.87475586 C-31.31942113 15.00331729 -26.48603948 12.06549734 -21.69140625 9.04296875 C-20.64678223 8.38949463 -19.6021582 7.73602051 -18.52587891 7.06274414 C-16.50857901 5.79702799 -14.49872645 4.51934216 -12.49755859 3.22827148 C-11.5895752 2.66052002 -10.6815918 2.09276855 -9.74609375 1.5078125 C-8.55004517 0.74428467 -8.55004517 0.74428467 -7.32983398 -0.03466797 C-4.35084198 -1.26896896 -3.04230607 -1.00583436 0 0 Z"/>
  <path transform="translate(878.2578125,443.984375)" fill="#FCFCFC" d="M0 0 C4.38578328 3.22373814 8.11252784 6.97350402 11.7421875 11.015625 C10.34468702 14.17397607 8.69020516 16.33835325 6.2421875 18.765625 C5.63375 19.37921875 5.0253125 19.9928125 4.3984375 20.625 C2.7421875 22.015625 2.7421875 22.015625 0.7421875 22.015625 C0.7421875 22.675625 0.7421875 23.335625 0.7421875 24.015625 C-0.9078125 24.675625 -2.5578125 25.335625 -4.2578125 26.015625 C-4.95003906 25.23638672 -4.95003906 25.23638672 -5.65625 24.44140625 C-12.62039909 16.99554724 -19.99306804 12.48879739 -30.3046875 11.8984375 C-41.05014082 11.56495791 -49.06444245 14.26267237 -57.015625 21.6484375 C-65.65640419 30.98395271 -66.83752014 41.81377586 -66.38964844 53.98095703 C-65.76116293 63.68058333 -62.43872333 71.93696899 -55.4765625 78.76171875 C-47.92642516 84.96582751 -39.11840113 87.73631925 -29.40234375 87.41796875 C-20.178333 86.26363871 -20.178333 86.26363871 -12.2578125 82.015625 C-12.10198947 80.67547279 -12.00737108 79.32803597 -11.94140625 77.98046875 C-11.90329834 77.25206787 -11.86519043 76.52366699 -11.82592773 75.77319336 C-11.78282471 74.8425708 -11.73972168 73.91194824 -11.6953125 72.953125 C-11.5509375 70.00375 -11.4065625 67.054375 -11.2578125 64.015625 C-18.5178125 64.015625 -25.7778125 64.015625 -33.2578125 64.015625 C-33.2578125 57.415625 -33.2578125 50.815625 -33.2578125 44.015625 C-18.7378125 44.015625 -4.2178125 44.015625 10.7421875 44.015625 C10.99581146 50.40746104 11.2142421 56.78168566 11.34643555 63.17456055 C11.401543 65.34476004 11.47645748 67.51455497 11.57202148 69.68334961 C12.38760753 88.67734551 12.38760753 88.67734551 8.45556641 93.37792969 C5.63628982 95.72565468 3.02319636 97.39063904 -0.2578125 99.015625 C-1.30477295 99.61028564 -2.3517334 100.20494629 -3.43041992 100.81762695 C-6.31385703 102.42180494 -9.21237463 103.74872285 -12.2578125 105.015625 C-13.05960938 105.3559375 -13.86140625 105.69625 -14.6875 106.046875 C-29.24619921 111.07032393 -47.25062022 109.34900683 -60.91015625 102.73046875 C-74.23749433 95.35833567 -83.66732998 84.36632356 -88.48046875 69.90625 C-93.00332282 53.08759668 -92.49765035 35.61694235 -84.2578125 20.015625 C-75.67555284 6.03666057 -63.21912617 -3.77541026 -47.328125 -8.1875 C-31.2473181 -11.81757622 -13.87800743 -8.65024853 0 0 Z"/>
  <path transform="translate(705,436)" fill="#FBFBFB" d="M0 0 C56.81712963 0 56.81712963 0 68.5546875 10.390625 C75.64784718 18.28895416 78.39720959 27.32481739 78.375 37.75 C78.37338867 38.53987305 78.37177734 39.32974609 78.37011719 40.14355469 C78.16793148 49.83657554 75.23689154 58.27629882 68.61328125 65.515625 C60.57528904 73.22275554 50.88010716 75.56875994 40.00683594 75.45043945 C38.60208008 75.40491943 37.19732422 75.35939941 35.75 75.3125 C28.94375 75.1578125 28.94375 75.1578125 22 75 C22 87.87 22 100.74 22 114 C14.74 114 7.48 114 0 114 C0 76.38 0 38.76 0 0 Z"/>
  <path transform="translate(380,436)" fill="#FCFCFC" d="M0 0 C23.43 0 46.86 0 71 0 C71 6.6 71 13.2 71 20 C55.16 20.33 39.32 20.66 23 21 C22.67 29.58 22.34 38.16 22 47 C36.52 47 51.04 47 66 47 C66 53.6 66 60.2 66 67 C51.48 67 36.96 67 22 67 C22 75.91 22 84.82 22 94 C38.17 94 54.34 94 71 94 C71 100.6 71 107.2 71 114 C47.57 114 24.14 114 0 114 C0 76.38 0 38.76 0 0 Z"/>
  <path transform="translate(525,473.6875)" fill="#FCFCFC" d="M0 0 C5.95943893 5.78670157 8.765752 12.85209314 9.12025452 21.11567688 C9.11803391 22.13493759 9.11581329 23.1541983 9.11352539 24.2043457 C9.11341209 25.94558464 9.11341209 25.94558464 9.11329651 27.72200012 C9.10813522 28.96487289 9.10297394 30.20774567 9.09765625 31.48828125 C9.0962413 32.76857712 9.09482635 34.04887299 9.09336853 35.3679657 C9.08956397 38.7594704 9.07975143 42.15093177 9.06866455 45.54241943 C9.05840597 49.00809137 9.05386141 52.47377036 9.04882812 55.93945312 C9.03780755 62.7304899 9.02054722 69.52148563 9 76.3125 C3.06 76.3125 -2.88 76.3125 -9 76.3125 C-9.99 74.0025 -10.98 71.6925 -12 69.3125 C-12.72445312 69.79460937 -13.44890625 70.27671875 -14.1953125 70.7734375 C-15.16210938 71.40507813 -16.12890625 72.03671875 -17.125 72.6875 C-18.07632813 73.31398438 -19.02765625 73.94046875 -20.0078125 74.5859375 C-28.61936281 79.55500439 -39.52114149 79.81261117 -49.12109375 77.58984375 C-55.53740386 75.17762366 -60.72919774 71.81208771 -64.375 65.875 C-67.27852268 59.44577122 -67.10770653 51.62563229 -65.375 44.87890625 C-62.24184129 37.70341331 -55.99390047 32.97375804 -48.93391418 30.01322937 C-45.89136636 28.91080061 -42.83216646 28.42329598 -39.640625 27.92578125 C-38.96956726 27.81904587 -38.29850952 27.71231049 -37.6071167 27.6023407 C-36.20277647 27.38060008 -34.79774767 27.16317985 -33.39208984 26.94995117 C-31.24033942 26.62353451 -29.09084509 26.28463722 -26.94140625 25.94335938 C-16.53760891 24.3125 -16.53760891 24.3125 -13 24.3125 C-13.42683632 23.03804546 -13.86697202 21.76804118 -14.3125 20.5 C-14.55613281 19.79230469 -14.79976563 19.08460938 -15.05078125 18.35546875 C-16.43052914 15.38588791 -18.08630961 13.7693452 -21 12.3125 C-29.6677728 11.41417785 -29.6677728 11.41417785 -37.6875 14.0625 C-39.84128782 16.15807734 -40.77153801 17.64241823 -42 20.3125 C-48.95660771 19.74228625 -55.31427305 18.29947306 -62 16.3125 C-60.95973013 9.18284554 -56.91272837 3.70760496 -51.40625 -0.8203125 C-36.63460939 -10.73722852 -14.20067537 -11.54957526 0 0 Z"/>
  <path transform="translate(609,468)" fill="#FCFCFC" d="M0 0 C7.92 0 15.84 0 24 0 C25.85534574 5.39543071 27.70974949 10.7911782 29.5625 16.1875 C29.97225571 17.38075394 29.97225571 17.38075394 30.39028931 18.59811401 C33.99212869 29.09129481 37.5688595 39.59144013 41.03149414 50.1315918 C42.32486253 54.1417993 42.32486253 54.1417993 44 58 C44.3623877 56.81148437 44.72477539 55.62296875 45.09814453 54.3984375 C46.46852548 49.90890888 47.84564299 45.42146858 49.22460938 40.93457031 C49.81591284 39.00738278 50.40548651 37.0796635 50.99316406 35.15136719 C54.61790735 23.26270405 58.50363437 11.58941657 63 0 C70.26 0 77.52 0 85 0 C79.3140709 16.6506467 73.4223633 33.20898635 67.31512451 49.70988464 C65.63243242 54.26424743 63.97423061 58.82705397 62.32655334 63.39419556 C61.08988216 66.81946467 59.8462032 70.24217063 58.60189819 73.66467285 C58.00054681 75.32380298 57.40217253 76.98401571 56.80703735 78.64538574 C46.37904832 107.73591371 46.37904832 107.73591371 33.28125 114.37890625 C25.08348539 117.54121599 17.65780124 117.32065931 9 117 C9 110.73 9 104.46 9 98 C12.031875 97.87625 12.031875 97.87625 15.125 97.75 C20.47698109 97.32533194 24.02055849 96.87471937 28 93 C30.72620709 88.81981579 31.38031724 85.92780922 31 81 C30.20535197 78.17916424 29.12840156 75.49498027 28.02734375 72.78125 C27.71249527 71.98183487 27.39764679 71.18241974 27.07325745 70.35877991 C26.03743707 67.73533934 24.98746222 65.1178088 23.9375 62.5 C23.21645325 60.67999987 22.4964135 58.85960049 21.77734375 57.03881836 C19.90599509 52.30665536 18.02325617 47.57911541 16.13739014 42.85272217 C13.24561538 35.59977555 10.37121323 28.33993539 7.49807739 21.07958984 C6.51012626 18.58803781 5.51705174 16.09857565 4.52319336 13.609375 C3.92159981 12.09509675 3.32011263 10.58077622 2.71875 9.06640625 C2.44140518 8.37563492 2.16406036 7.68486359 1.87831116 6.97315979 C0 2.22689211 0 2.22689211 0 0 Z"/>
  <path transform="translate(592.328125,471.03125)" fill="#FCFCFC" d="M0 0 C6.23836106 3.52395968 10.27479605 8.6665634 13.046875 15.21875 C13.671875 17.96875 13.671875 17.96875 13.671875 21.96875 C10.42255573 22.14330021 7.17444052 22.24966753 3.921875 22.34375 C2.54128906 22.41916016 2.54128906 22.41916016 1.1328125 22.49609375 C-1.48290047 22.55295708 -3.77295782 22.53997182 -6.328125 21.96875 C-8.84375 19.0078125 -8.84375 19.0078125 -10.328125 15.96875 C-14.02558974 14.12001763 -18.29186856 14.50002345 -22.328125 14.96875 C-25.06449801 16.45167843 -25.06449801 16.45167843 -26.328125 18.96875 C-26.66310801 21.63709966 -26.66310801 21.63709966 -26.328125 23.96875 C-22.74196214 25.56808 -19.18776091 26.50091852 -15.35107422 27.31152344 C-3.8502918 29.75547146 5.83138656 32.70801734 12.671875 42.96875 C15.69897772 49.21660848 15.86620515 56.15649082 13.796875 62.76171875 C9.70620301 71.6562391 4.02161961 75.84136501 -4.99609375 79.20703125 C-15.44526858 82.6200783 -25.49806045 81.73568861 -35.54296875 77.390625 C-41.29976762 74.45167018 -45.34703659 70.82051614 -48.328125 64.96875 C-48.92288839 61.6350762 -49.1589252 58.3461938 -49.328125 54.96875 C-46.07880573 54.79419979 -42.83069052 54.68783247 -39.578125 54.59375 C-38.65773438 54.54347656 -37.73734375 54.49320313 -36.7890625 54.44140625 C-34.17334953 54.38454292 -31.88329218 54.39752818 -29.328125 54.96875 C-26.8125 57.9296875 -26.8125 57.9296875 -25.328125 60.96875 C-21.38633911 62.93964295 -16.62595286 62.41247854 -12.328125 61.96875 C-9.42171782 60.64977444 -9.42171782 60.64977444 -8.328125 57.96875 C-8.47425395 54.27442489 -8.47425395 54.27442489 -9.328125 50.96875 C-14.27521879 49.20193079 -19.15462673 47.7513734 -24.2800293 46.58154297 C-34.29101684 44.26784105 -41.20787902 41.42909003 -47.328125 32.96875 C-50.35327829 27.95533341 -49.99849816 22.63898968 -49.328125 16.96875 C-47.18742855 10.12616672 -43.47008575 4.72937472 -37.328125 0.96875 C-24.66369185 -5.02613388 -13.07784711 -5.79287187 0 0 Z"/>
  <path transform="translate(736.625,454.75)" fill="#030303" d="M0 0 C0.79535156 -0.020625 1.59070313 -0.04125 2.41015625 -0.0625 C8.44018816 -0.10210612 13.29937277 0.67407422 18.08203125 4.6796875 C22.19934599 10.06274917 23.85991371 14.16595176 23.69140625 20.90625 C22.97352245 26.22390775 20.63716766 30.07798718 16.75 33.6875 C13.27473939 35.97385566 11.5011802 36.37141483 7.3671875 36.34765625 C6.38105469 36.34443359 5.39492188 36.34121094 4.37890625 36.33789062 C3.34636719 36.32951172 2.31382812 36.32113281 1.25 36.3125 C-0.31041016 36.30573242 -0.31041016 36.30573242 -1.90234375 36.29882812 C-4.47661962 36.28701952 -7.05078146 36.27055075 -9.625 36.25 C-9.64965098 31.28377651 -9.66783649 26.31758834 -9.67993164 21.35131836 C-9.6849719 19.66055684 -9.69180405 17.96979971 -9.70043945 16.27905273 C-9.71251857 13.85399293 -9.71823123 11.42899056 -9.72265625 9.00390625 C-9.72781754 8.24348526 -9.73297882 7.48306427 -9.73829651 6.69960022 C-9.73849238 4.8826743 -9.68697277 3.06586873 -9.625 1.25 C-7.49523278 -0.87976722 -2.93611579 0.01849522 0 0 Z"/>
  <path transform="translate(513,513)" fill="#020202" d="M0 0 C-0.30436702 6.84825806 -1.32262859 11.52953952 -6.52734375 16.44140625 C-11.67380477 20.85805128 -14.66877631 21.2833849 -21.296875 21.22265625 C-24.59505656 20.95098523 -26.50258373 20.17516901 -29 18 C-31.37358694 14.43961959 -31.73959381 13.19103161 -31 9 C-28.90170571 5.49720228 -26.01990106 3.59107583 -22.11279297 2.44775391 C-14.7770928 0.74708985 -7.52756873 -0.17828452 0 0 Z"/>
</svg>
